{"accessors":[{"bufferView":0,"componentType":5126,"count":522,"max":[50.0,0.5,50.0],"min":[-50.0,-0.5,-50.0],"normalized":false,"type":"VEC3"},{"bufferView":1,"componentType":5126,"count":522,"max":[1.0,0.0,1.0,1.0],"min":[-1.0,-2.157951530534774e-05,-1.0,1.0],"normalized":false,"type":"VEC4"},{"bufferView":2,"componentType":5126,"count":522,"max":[1.0,1.0,1.0],"min":[-1.0,-1.0,-1.0],"normalized":false,"type":"VEC3"},{"bufferView":3,"componentType":5126,"count":522,"max":[1.0,1.0],"min":[0.0,0.0],"normalized":false,"type":"VEC2"},{"bufferView":4,"componentType":5123,"count":2304,"max":[521],"min":[0],"normalized":false,"type":"SCALAR"},{"bufferView":5,"componentType":5126,"count":522,"max":[40.0,0.5,40.0],"min":[-40.0,-0.5,-40.0],"normalized":false,"type":"VEC3"},{"bufferView":6,"componentType":5126,"count":20,"max":[15.0,10.0,2.5],"min":[-15.0,-10.0,-2.5],"normalized":false,"type":"VEC3"},{"bufferView":7,"componentType":5126,"count":20,"max":[1.0,0.0,1.0,1.0],"min":[-1.0,-1.5259254723787308e-05,-1.0,1.0],"normalized":false,"type":"VEC4"},{"bufferView":8,"componentType":5126,"count":20,"max":[1.0,0.8320438265800476,1.0],"min":[-0.5547099709510803,-1.0,-1.0],"normalized":false,"type":"VEC3"},{"bufferView":9,"componentType":5126,"count":20,"max":[1.0,1.0],"min":[0.0,0.0],"normalized":false,"type":"VEC2"},{"bufferView":10,"componentType":5121,"count":24,"max":[19],"min":[2],"normalized":false,"type":"SCALAR"},{"bufferView":11,"componentType":5126,"count":20,"max":[25.0,10.0,2.5],"min":[-25.0,-10.0,-2.5],"normalized":false,"type":"VEC3"},{"bufferView":12,"componentType":5126,"count":20,"max":[1.0,0.9284671545028687,1.0],"min":[-0.3714146614074707,-1.0,-1.0],"normalized":false,"type":"VEC3"},{"bufferView":13,"componentType":5126,"count":24,"max":[10.0,12.5,10.0],"min":[-10.0,-12.5,-10.0],"normalized":false,"type":"VEC3"},{"bufferView":14,"componentType":5126,"count":24,"max":[1.0,0.0,1.0,1.0],"min":[-1.0,-1.5259254723787308e-05,-1.0,1.0],"normalized":false,"type":"VEC4"},{"bufferView":15,"componentType":5126,"count":24,"max":[1.0,1.0,1.0],"min":[-1.0,-1.0,-1.0],"normalized":false,"type":"VEC3"},{"bufferView":16,"componentType":5126,"count":24,"max":[1.0,1.0],"min":[0.0,0.0],"normalized":false,"type":"VEC2"},{"bufferView":17,"componentType":5121,"count":36,"max":[23],"min":[0],"normalized":false,"type":"SCALAR"},{"bufferView":18,"componentType":5126,"count":24,"max":[2.5,12.5,25.0],"min":[-2.5,-12.5,-25.0],"normalized":false,"type":"VEC3"},{"bufferView":19,"componentType":5126,"count":24,"max":[25.0,0.5,25.0],"min":[-25.0,-0.5,-25.0],"normalized":false,"type":"VEC3"},{"bufferView":20,"componentType":5126,"count":24,"max":[25.5,0.5,2.5],"min":[-25.5,-0.5,-2.5],"normalized":false,"type":"VEC3"}],"asset":{"generator":"Godot Engine v4.6.2.stable.official@71f334935c000924d403448e698df4441130df18","version":"2.0"},"bufferViews":[{"buffer":0,"byteLength":6264,"byteStride":12,"target":34962},{"buffer":0,"byteLength":8352,"byteOffset":6264,"byteStride":16,"target":34962},{"buffer":0,"byteLength":6264,"byteOffset":14616,"byteStride":12,"target":34962},{"buffer":0,"byteLength":4176,"byteOffset":20880,"byteStride":8,"target":34962},{"buffer":0,"byteLength":4608,"byteOffset":25056,"target":34963},{"buffer":0,"byteLength":6264,"byteOffset":29664,"byteStride":12,"target":34962},{"buffer":0,"byteLength":240,"byteOffset":35928,"byteStride":12,"target":34962},{"buffer":0,"byteLength":320,"byteOffset":36168,"byteStride":16,"target":34962},{"buffer":0,"byteLength":240,"byteOffset":36488,"byteStride":12,"target":34962},{"buffer":0,"byteLength":160,"byteOffset":36728,"byteStride":8,"target":34962},{"buffer":0,"byteLength":24,"byteOffset":36888,"target":34963},{"buffer":0,"byteLength":240,"byteOffset":36912,"byteStride":12,"target":34962},{"buffer":0,"byteLength":240,"byteOffset":37152,"byteStride":12,"target":34962},{"buffer":0,"byteLength":288,"byteOffset":37392,"byteStride":12,"target":34962},{"buffer":0,"byteLength":384,"byteOffset":37680,"byteStride":16,"target":34962},{"buffer":0,"byteLength":288,"byteOffset":38064,"byteStride":12,"target":34962},{"buffer":0,"byteLength":192,"byteOffset":38352,"byteStride":8,"target":34962},{"buffer":0,"byteLength":36,"byteOffset":38544,"target":34963},{"buffer":0,"byteLength":288,"byteOffset":38580,"byteStride":12,"target":34962},{"buffer":0,"byteLength":288,"byteOffset":38868,"byteStride":12,"target":34962},{"buffer":0,"byteLength":288,"byteOffset":39156,"byteStride":12,"target":34962}],"buffers":[{"byteLength":39444,"uri":"level_30.bin"}],"extensions":{"OMI_physics_shape":{"shapes":[{"trimesh":{"mesh":0},"type":"trimesh"}]}},"extensionsUsed":["GODOT_single_root","OMI_physics_body","OMI_physics_shape"],"meshes":[{"primitives":[{"attributes":{"NORMAL":2,"POSITION":0,"TANGENT":1,"TEXCOORD_0":3},"indices":4,"mode":4}]},{"primitives":[{"attributes":{"NORMAL":2,"POSITION":5,"TANGENT":1,"TEXCOORD_0":3},"indices":4,"mode":4}]},{"primitives":[{"attributes":{"NORMAL":8,"POSITION":6,"TANGENT":7,"TEXCOORD_0":9},"indices":10,"mode":4}]},{"primitives":[{"attributes":{"NORMAL":8,"POSITION":6,"TANGENT":7,"TEXCOORD_0":9},"indices":10,"mode":4}]},{"primitives":[{"attributes":{"NORMAL":12,"POSITION":11,"TANGENT":7,"TEXCOORD_0":9},"indices":10,"mode":4}]},{"primitives":[{"attributes":{"NORMAL":12,"POSITION":11,"TANGENT":7,"TEXCOORD_0":9},"indices":10,"mode":4}]},{"primitives":[{"attributes":{"NORMAL":15,"POSITION":13,"TANGENT":14,"TEXCOORD_0":16},"indices":17,"mode":4}]},{"primitives":[{"attributes":{"NORMAL":15,"POSITION":13,"TANGENT":14,"TEXCOORD_0":16},"indices":17,"mode":4}]},{"primitives":[{"attributes":{"NORMAL":15,"POSITION":18,"TANGENT":14,"TEXCOORD_0":16},"indices":17,"mode":4}]},{"primitives":[{"attributes":{"NORMAL":15,"POSITION":19,"TANGENT":14,"TEXCOORD_0":16},"indices":17,"mode":4}]},{"primitives":[{"attributes":{"NORMAL":15,"POSITION":20,"TANGENT":14,"TEXCOORD_0":16},"indices":17,"mode":4}]}],"nodes":[{"children":[1,4,5,6,7,8,9,10,11,12,13],"name":"Node3D"},{"children":[2],"mesh":0,"name":"MeshInstance3D","translation":[0.0,-0.5,0.0]},{"children":[3],"extensions":{"OMI_physics_body":{"motion":{"type":"static"}}},"name":"StaticBody3D"},{"extensions":{"OMI_physics_body":{"collider":{"shape":0}}},"name":"CollisionShape3D"},{"mesh":1,"name":"MeshInstance3D2","translation":[0.0,50.0,0.0]},{"mesh":2,"name":"MeshInstance3D3","rotation":[0.0,0.7071067690849304,0.0,0.7071067690849304],"translation":[4.0,60.0,-20.21154022216797]},{"mesh":3,"name":"MeshInstance3D4","rotation":[0.0,0.7071067690849304,0.0,0.7071067690849304],"translation":[-4.0,60.0,-20.21154022216797]},{"mesh":4,"name":"MeshInstance3D9","translation":[-34.84609603881836,59.93631362915039,-114.31024169921875]},{"mesh":5,"name":"MeshInstance3D10","rotation":[0.0,0.7071067690849304,0.0,0.7071067690849304],"translation":[-62.08231735229492,39.93600082397461,-86.5476303100586]},{"mesh":6,"name":"MeshInstance3D5","rotation":[0.0,0.7071067690849304,0.0,0.7071067690849304],"translation":[0.0,57.5,-45.108001708984375]},{"mesh":7,"name":"MeshInstance3D6","rotation":[0.0,0.7071067690849304,0.0,0.7071067690849304],"translation":[0.0,57.5,-116.10800170898438]},{"mesh":8,"name":"MeshInstance3D11","rotation":[0.0,0.7071067690849304,0.0,0.7071067690849304],"translation":[-39.803916931152344,37.617759704589844,-114.55583190917969]},{"mesh":9,"name":"MeshInstance3D8","rotation":[0.0,0.7071067690849304,0.0,0.7071067690849304],"translation":[-39.32815933227539,34.160518646240234,-87.32209777832031]},{"mesh":10,"name":"MeshInstance3D7","rotation":[0.0,0.7071067690849304,0.0,0.7071067690849304],"translation":[0.0,69.5,-80.58438110351563]}],"scene":0,"scenes":[{"nodes":[0]}]}